:SAMPLES-PER-SECOND 24
:FULLY-SPECIFIED
:DEGREES
70
root  0.892858 36.5791 15.668 -3.36346 77.0365 -4.43463
RightUpLeg  -15.9548 -7.85835 -20.4162
RightLeg  28.6116 1.71687 0.849742
RightFoot  -9.24062 -0.239299 10.1218
RightToes  -1.74623e-010 0 -2.59999e-017
Spine  6.6213 2.08472 4.67754
Spine1  14.0704 2.81501 -1.93735
HEad  -44.1647 57.2258 -51.5432
LeftShoulder1  2.26562 -3.49801 -26.2275
LeftArm  6.20739 5.54317 -31.0803
LeftForeArm  11.1178 -51.7106 -13.4052
LeftHand  0.13359 5.95849 26.9436
RightShoulder  3.5122 5.86809 31.591
RightArm  -7.68643 -18.2443 32.4895
RightForeArm  139.058 71.1374 147.252
RightHand  -0.387439 -2.62608 -15.976
LeftUpLeg  -5.86604 -16.9591 23.1243
LeftLeg  23.835 -13.1045 -5.93193
LeftFoot  -20.58 -1.11585 -15.2192
LeftToes  -6.27559e-011 -2.10356e-011 8.24929e-012
71
root  0.3074 35.9842 17.6931 -0.131568 81.6855 -0.129449
RightUpLeg  -18.569 -16.8165 -20.0729
RightLeg  39.6696 5.40841 4.58609
RightFoot  -11.654 -0.0411169 13.5566
RightToes  -1.74623e-010 0 -2.59999e-017
Spine  7.29712 1.70024 4.90287
Spine1  16.0009 3.72503 -5.79601
HEad  -47.3414 55.6407 -52.1773
LeftShoulder1  2.2833 -3.65373 -25.7556
LeftArm  0.583784 5.39498 -29.7719
LeftForeArm  11.3618 -52.0536 -13.5611
LeftHand  0.335497 6.78061 27.5119
RightShoulder  3.57439 5.93913 31.9693
RightArm  -6.12878 -11.2404 36.2714
RightForeArm  136.22 72.2633 144.653
RightHand  -0.355622 -2.82151 -15.7447
LeftUpLeg  -8.33273 -15.5383 25.3194
LeftLeg  25.2277 -10.2928 -4.88334
LeftFoot  -17.5084 -0.961919 -19.8368
LeftToes  -6.27559e-011 -2.10356e-011 8.24929e-012
72
root  0.0755146 36.0766 19.2442 15.2916 86.4025 15.6379
RightUpLeg  -17.3521 -24.8314 -20.0359
RightLeg  42.9147 7.44641 7.07565
RightFoot  -13.8253 0.177055 12.4663
RightToes  -1.74623e-010 0 -2.59999e-017
Spine  6.27624 1.16039 6.20851
Spine1  17.6646 4.31414 -8.6677
HEad  -44.7332 54.7423 -49.3713
LeftShoulder1  2.37905 -3.78895 -26.5043
LeftArm  -2.48531 5.68708 -30.3232
LeftForeArm  12.1761 -50.8965 -12.9086
LeftHand  0.350485 6.91524 26.4055
RightShoulder  3.63475 6.01606 32.2992
RightArm  -2.71918 -5.6309 38.1467
RightForeArm  131.681 73.6701 140.717
RightHand  -0.241944 -3.53119 -14.468
LeftUpLeg  -9.54551 -11.5726 25.2929
LeftLeg  22.7144 -1.5448 -0.372539
LeftFoot  -9.00576 0.472177 -20.344
LeftToes  -6.27559e-011 -2.10356e-011 8.24929e-012
73
root  0.104816 37.0304 20.3305 90.7128 87.9671 90.9476
RightUpLeg  -13.1974 -25.8959 -19.6746
RightLeg  37.5702 5.86418 4.61705
RightFoot  -12.8814 0.0809164 12.5461
RightToes  -1.74623e-010 0 -2.59999e-017
Spine  5.36925 1.33622 6.18451
Spine1  17.4506 4.76052 -9.39391
HEad  -40.8495 54.9459 -46.6816
LeftShoulder1  2.46204 -3.7657 -27.791
LeftArm  -3.14956 8.56741 -33.1372
LeftForeArm  12.4105 -49.2339 -12.1027
LeftHand  0.0989289 5.89979 23.2578
RightShoulder  3.61265 6.00073 32.1273
RightArm  1.00569 -4.11348 39.1295
RightForeArm  134.452 73.4032 141.831
RightHand  -0.222611 -3.35824 -12.1643
LeftUpLeg  -8.86699 -1.42005 22.2876
LeftLeg  17.6519 8.75586 3.6567
LeftFoot  3.10182 1.4647 -11.7579
LeftToes  -6.27559e-011 -2.10356e-011 8.24929e-012
74
root  0.239683 38.4516 20.9656 131.892 85.0141 131.846
RightUpLeg  -7.76971 -23.3154 -19.8955
RightLeg  27.764 1.82777 0.794539
RightFoot  -7.68988 -0.502504 14.0777
RightToes  -1.74623e-010 0 -2.59999e-017
Spine  4.84241 1.80971 4.78645
Spine1  16.684 5.19978 -9.43587
HEad  -39.2346 54.8876 -45.1977
LeftShoulder1  2.46609 -3.78651 -27.7495
LeftArm  -1.1413 12.7129 -37.2705
LeftForeArm  10.5792 -46.6711 -11.1381
LeftHand  -0.10348 4.86948 21.6533
RightShoulder  3.55324 5.9118 31.8542
RightArm  3.59475 -6.12318 40.1846
RightForeArm  141.547 70.8689 148.049
RightHand  -0.278507 -2.43838 -10.6421
LeftUpLeg  -7.89772 12.0568 17.0009
LeftLeg  13.8247 8.83388 2.31096
LeftFoot  8.84678 0.885524 -5.10673
LeftToes  -6.27559e-011 -2.10356e-011 8.24929e-012
75
root  0.374899 39.8224 21.1952 145.448 81.8153 145.303
RightUpLeg  -1.41294 -22.4768 -21.0995
RightLeg  17.336 -0.114322 0.375234
RightFoot  0.316051 -1.75908 17.027
RightToes  -1.74623e-010 0 -2.59999e-017
Spine  4.38952 1.8058 4.88157
Spine1  16.208 5.26664 -9.41413
HEad  -37.4173 54.2755 -42.9188
LeftShoulder1  2.49349 -3.92119 -27.4978
LeftArm  2.52321 15.8932 -40.1595
LeftForeArm  9.48377 -43.3309 -9.93222
LeftHand  -0.203034 4.33254 21.6588
RightShoulder  3.52267 5.85941 31.7384
RightArm  5.38909 -9.00747 40.8297
RightForeArm  145.667 67.4685 153.554
RightHand  -0.321268 -1.95136 -10.6408
LeftUpLeg  -7.25696 17.4807 12.1837
LeftLeg  13.6779 0.348537 -0.961411
LeftFoot  9.17068 1.60349 -9.16607
LeftToes  -6.27559e-011 -2.10356e-011 8.24929e-012
76
root  0.382406 40.6319 21.2996 156.844 79.6836 156.788
RightUpLeg  1.92774 -18.1068 -21.5388
RightLeg  12.915 -0.311622 2.15473
RightFoot  6.15322 -2.9532 19.3034
RightToes  -1.74623e-010 0 -2.59999e-017
Spine  4.2678 1.91748 6.40178
Spine1  15.6231 5.31204 -8.98034
HEad  -34.482 53.6964 -40.4349
LeftShoulder1  2.52228 -3.94362 -27.792
LeftArm  6.27181 17.6048 -41.5681
LeftForeArm  9.36199 -40.7205 -9.03869
LeftHand  -0.24805 4.07651 21.424
RightShoulder  3.51019 5.85296 31.6301
RightArm  6.79336 -10.9199 40.1534
RightForeArm  147.077 64.3144 157.145
RightHand  -0.360162 -1.74748 -11.3188
LeftUpLeg  -7.43394 19.0259 9.05276
LeftLeg  17.182 -8.58601 -2.7019
LeftFoot  9.63357 2.4939 -13.7381
LeftToes  -6.27559e-011 -2.10356e-011 8.24929e-012
77
root  0.2466 40.7874 21.5189 162.065 78.8057 162.179
RightUpLeg  1.24263 -17.3252 -20.87
RightLeg  16.191 6.22016 2.36192
RightFoot  6.96488 -2.4607 15.4173
RightToes  -1.74623e-010 0 -2.59999e-017
Spine  4.39231 2.54782 7.09334
Spine1  15.3787 5.75717 -8.67735
HEad  -32.5754 53.3124 -39.2281
LeftShoulder1  2.42707 -3.79685 -27.1461
LeftArm  10.0616 17.912 -42.7043
LeftForeArm  8.02631 -39.2959 -8.66472
LeftHand  -0.234917 4.11696 20.8671
RightShoulder  3.43498 5.78738 31.0792
RightArm  7.32052 -11.0111 39.2477
RightForeArm  147.016 62.565 158.728
RightHand  -0.343979 -1.92138 -11.3142
LeftUpLeg  -7.29609 20.2835 7.79212
LeftLeg  22.1543 -9.08551 -3.70424
LeftFoot  9.00831 2.18068 -12.3972
LeftToes  -6.27559e-011 -2.10356e-011 8.24929e-012
78
root  0.10108 40.3249 21.834 163.884 77.5551 164.347
RightUpLeg  0.778806 -13.8934 -20.949
RightLeg  21.2594 5.47368 2.05574
RightFoot  3.84305 -1.47929 11.158
RightToes  -1.74623e-010 0 -2.59999e-017
Spine  4.70481 2.96503 6.04706
Spine1  15.0236 5.66662 -8.19534
HEad  -30.6718 53.1907 -37.6764
LeftShoulder1  2.27951 -3.66668 -25.6392
LeftArm  13.1543 17.8909 -43.131
LeftForeArm  7.40314 -39.2393 -8.68714
LeftHand  -0.211918 4.18877 19.8525
RightShoulder  3.25539 5.62876 29.7314
RightArm  7.09688 -9.93427 39.542
RightForeArm  146.773 63.4812 157.886
RightHand  -0.304886 -2.14322 -10.6618
LeftUpLeg  -6.6997 22.7771 6.68881
LeftLeg  25.6741 -5.64028 -2.61074
LeftFoot  4.2224 1.12835 -8.33049
LeftToes  -6.27559e-011 -2.10356e-011 8.24929e-012
79
root  -0.0547959 39.3544 22.1974 169.138 74.5304 169.795
RightUpLeg  1.7227 -13.8076 -21.3656
RightLeg  25.1743 4.00641 1.82939
RightFoot  -2.83727 -1.1492 15.328
RightToes  -1.74623e-010 0 -2.59999e-017
Spine  5.04147 2.74272 4.3981
Spine1  14.1229 4.38091 -5.71212
HEad  -29.2936 52.4231 -36.1349
LeftShoulder1  2.21332 -3.64659 -24.7657
LeftArm  15.5891 16.783 -42.0185
LeftForeArm  7.62234 -40.1067 -8.95045
LeftHand  -0.220296 4.0204 18.1179
RightShoulder  3.10064 5.47462 28.5956
RightArm  6.22162 -8.15759 39.3973
RightForeArm  144.29 65.86 155.269
RightHand  -0.302351 -2.2145 -10.7574
LeftUpLeg  -9.00069 21.1749 6.15672
LeftLeg  29.941 -1.14717 -0.326591
LeftFoot  -3.45238 0.420895 -5.73415
LeftToes  -6.27559e-011 -2.10356e-011 8.24929e-012
80
root  -0.296865 38.0793 22.7501 174.229 70.7133 174.937
RightUpLeg  1.93911 -16.1792 -20.8924
RightLeg  29.5555 5.11965 2.90653
RightFoot  -12.329 0.0878087 19.794
RightToes  -1.74623e-010 0 -2.59999e-017
Spine  5.00925 2.50137 2.70808
Spine1  14.7647 3.11124 -2.64572
HEad  -32.4303 50.058 -37.3568
LeftShoulder1  2.19854 -3.59722 -24.7725
LeftArm  18.5967 11.0168 -39.9303
LeftForeArm  6.39203 -39.3308 -8.77955
LeftHand  -0.141495 4.40407 15.4536
RightShoulder  3.17876 5.49231 29.4168
RightArm  3.73134 -4.12457 37.0251
RightForeArm  137.403 68.5321 151.154
RightHand  -0.0861119 -4.66699 -11.2317
LeftUpLeg  -14.6211 18.2328 7.20344
LeftLeg  37.8656 -0.635518 -0.143645
LeftFoot  -9.67394 0.142668 -5.8193
LeftToes  -6.27559e-011 -2.10356e-011 8.24929e-012
